<?xml version="1.0" encoding="utf-8"?>
<!-- Generator: Adobe Illustrator 19.2.1, SVG Export Plug-In . SVG Version: 6.00 Build 0)  -->
<svg version="1.1" id="Layer_1" xmlns="http://www.w3.org/2000/svg" xmlns:xlink="http://www.w3.org/1999/xlink" x="0px" y="0px"
	 viewBox="0 0 810 300" style="enable-background:new 0 0 810 300;" xml:space="preserve">
<style type="text/css">
	.st0{opacity:0.4;fill:#FFFFFF;}
	.st1{fill:none;stroke:#3C7ABE;stroke-width:8;}
	.st2{fill:none;stroke:#3C7ABE;stroke-width:8;stroke-linecap:round;stroke-linejoin:round;}
	.st3{fill:#3C7ABE;}
	.st4{fill:#214185;}
	.st5{fill:#FFFFFF;}
</style>
<path class="st0" d="M793.5,150.9c0,33.1-11.8,61.6-35.3,85c-23.5,23.5-51.7,35.3-85,35.3H143.8c-33.1,0-61.6-11.8-85-35.3
	c-23.7-23.5-35.3-51.9-35.3-85v-2c0-33.3,11.6-61.6,35.3-85.2c23.5-23.5,51.9-35.1,85-35.1h529.4c33.3,0,61.6,11.6,85,35.1
	c23.5,23.7,35.3,51.9,35.3,85.2V150.9"/>
<g>
	<path class="st1" d="M793.5,150.9v-2c0-33.3-11.8-61.6-35.3-85.2c-23.5-23.5-51.7-35.1-85-35.1H143.8c-33.1,0-61.6,11.6-85,35.1
		c-23.7,23.7-35.3,51.9-35.3,85.2v2c0,33.1,11.6,61.6,35.3,85c23.5,23.5,51.9,35.3,85,35.3h529.4c33.3,0,61.6-11.8,85-35.3
		C781.7,212.5,793.5,184,793.5,150.9z"/>
	<path class="st2" d="M793.5,150.9c0,33.1-11.8,61.6-35.3,85c-23.5,23.5-51.7,35.3-85,35.3H143.8c-33.1,0-61.6-11.8-85-35.3
		c-23.7-23.5-35.3-51.9-35.3-85v-2c0-33.3,11.6-61.6,35.3-85.2c23.5-23.5,51.9-35.1,85-35.1h529.4c33.3,0,61.6,11.6,85,35.1
		c23.5,23.7,35.3,51.9,35.3,85.2V150.9"/>
</g>
<g>
	<path class="st3" d="M283.4,150.8c0-36.7-12.8-67.8-38.7-93.6c-25.9-25.9-56.9-38.7-93.6-38.7c-36.5,0-67.8,12.8-93.4,38.7
		c-25.9,25.9-38.9,56.9-38.9,93.6c0,36.5,13,67.8,38.9,93.6c25.7,25.7,56.9,38.7,93.4,38.7c36.7,0,67.8-13,93.6-38.7
		C270.5,218.6,283.4,187.3,283.4,150.8z"/>
</g>
<g>
	<g>
		<path class="st4" d="M392.5,195.4V95.9h13.2v87.7h49v11.7H392.5z"/>
		<path class="st4" d="M518.1,172.2l12.6,1.6c-2,7.4-5.7,13.1-11.1,17.2c-5.4,4.1-12.3,6.1-20.6,6.1c-10.5,0-18.9-3.2-25.1-9.7
			c-6.2-6.5-9.3-15.6-9.3-27.3c0-12.1,3.1-21.5,9.4-28.2c6.2-6.7,14.3-10,24.3-10c9.6,0,17.5,3.3,23.6,9.8
			c6.1,6.6,9.2,15.8,9.2,27.7c0,0.7,0,1.8-0.1,3.3h-53.7c0.5,7.9,2.7,14,6.7,18.2c4,4.2,9,6.3,15.1,6.3c4.5,0,8.3-1.2,11.5-3.5
			C513.7,181.1,516.2,177.4,518.1,172.2z M478,152.5h40.2c-0.5-6.1-2.1-10.6-4.6-13.6c-3.9-4.7-8.9-7.1-15.1-7.1
			c-5.6,0-10.3,1.9-14.1,5.6C480.5,141.2,478.4,146.2,478,152.5z"/>
		<path class="st4" d="M546.1,195.4v-72.1h11v10.2c5.3-7.9,12.9-11.9,22.9-11.9c4.3,0,8.3,0.8,12,2.3s6.4,3.6,8.2,6.1
			c1.8,2.5,3.1,5.5,3.8,9c0.5,2.3,0.7,6.2,0.7,11.9v44.3h-12.2v-43.8c0-5-0.5-8.7-1.4-11.2c-1-2.5-2.6-4.4-5.1-5.9
			c-2.4-1.5-5.3-2.2-8.5-2.2c-5.2,0-9.7,1.7-13.5,5c-3.8,3.3-5.7,9.6-5.7,18.8v39.4H546.1z"/>
		<path class="st4" d="M618.4,173.9l12.1-1.9c0.7,4.8,2.6,8.5,5.7,11.1s7.4,3.9,13,3.9c5.6,0,9.8-1.1,12.5-3.4c2.7-2.3,4.1-5,4.1-8
			c0-2.8-1.2-4.9-3.6-6.5c-1.7-1.1-5.8-2.5-12.5-4.1c-9-2.3-15.2-4.2-18.6-5.9c-3.5-1.7-6.1-3.9-7.9-6.9c-1.8-2.9-2.7-6.1-2.7-9.7
			c0-3.2,0.7-6.2,2.2-8.9c1.5-2.7,3.5-5,6-6.8c1.9-1.4,4.5-2.6,7.8-3.6c3.3-1,6.8-1.5,10.6-1.5c5.7,0,10.6,0.8,14.9,2.4
			s7.4,3.8,9.5,6.6s3.4,6.5,4.2,11.2l-11.9,1.6c-0.5-3.7-2.1-6.6-4.7-8.7c-2.6-2.1-6.3-3.1-11-3.1c-5.6,0-9.6,0.9-12,2.8
			c-2.4,1.9-3.6,4-3.6,6.5c0,1.6,0.5,3,1.5,4.3c1,1.3,2.6,2.4,4.7,3.3c1.2,0.5,4.8,1.5,10.8,3.1c8.6,2.3,14.7,4.2,18.1,5.7
			c3.4,1.5,6.1,3.6,8,6.4c1.9,2.8,2.9,6.3,2.9,10.4c0,4.1-1.2,7.9-3.6,11.5c-2.4,3.6-5.8,6.4-10.3,8.3s-9.5,3-15.2,3
			c-9.4,0-16.5-1.9-21.4-5.8C622.9,187.3,619.8,181.5,618.4,173.9z"/>
	</g>
</g>
<g>
	<path class="st5" d="M299.8,56.9C273.8,31,242.7,18.2,206,18.2c-36.5,0-67.6,12.8-93.4,38.7c-25.9,25.9-38.7,56.9-38.7,93.6
		c0,36.5,12.8,67.8,38.7,93.6c25.9,25.7,56.9,38.7,93.4,38.7c36.7,0,67.8-13,93.8-38.7c25.7-25.9,38.7-57.1,38.7-93.6
		C338.5,113.8,325.5,82.7,299.8,56.9z"/>
</g>
<g>
	<path class="st4" d="M360.4,150.5c0-36.7-12.8-67.8-38.7-93.6C295.8,31,264.7,18.2,228,18.2c-36.5,0-67.8,12.8-93.4,38.7
		c-25.9,25.9-38.9,56.9-38.9,93.6c0,36.5,13,67.8,38.9,93.6c25.7,25.7,56.9,38.7,93.4,38.7c36.7,0,67.8-13,93.6-38.7
		C347.5,218.3,360.4,187,360.4,150.5z"/>
</g>
<g>
	<g>
		<path class="st5" d="M235,202.3h-24.9l-9.9-25.8h-45.4l-9.4,25.8h-24.3l44.2-113.5h24.2L235,202.3z M192.8,157.4l-15.6-42.1
			l-15.3,42.1H192.8z"/>
		<path class="st5" d="M319.8,160.6l22.2,7c-3.4,12.4-9.1,21.6-17,27.6c-7.9,6-18,9-30.1,9c-15.1,0-27.4-5.1-37.1-15.4
			c-9.7-10.3-14.5-24.4-14.5-42.2c0-18.9,4.9-33.5,14.6-44c9.8-10.4,22.6-15.7,38.5-15.7c13.9,0,25.2,4.1,33.8,12.3
			c5.2,4.9,9,11.8,11.6,20.9l-22.7,5.4c-1.3-5.9-4.1-10.5-8.4-13.9c-4.3-3.4-9.4-5.1-15.5-5.1c-8.4,0-15.2,3-20.5,9.1
			c-5.2,6-7.9,15.8-7.9,29.3c0,14.3,2.6,24.6,7.7,30.6c5.2,6.1,11.9,9.1,20.1,9.1c6.1,0,11.3-1.9,15.7-5.8
			C314.7,175,317.8,168.9,319.8,160.6z"/>
	</g>
</g>
</svg>
