<?xml version="1.0" encoding="UTF-8" standalone="no"?>
<!-- Created with Inkscape (http://www.inkscape.org/) -->

<svg
   xmlns:dc="http://purl.org/dc/elements/1.1/"
   xmlns:cc="http://creativecommons.org/ns#"
   xmlns:rdf="http://www.w3.org/1999/02/22-rdf-syntax-ns#"
   xmlns:svg="http://www.w3.org/2000/svg"
   xmlns="http://www.w3.org/2000/svg"
   version="1.1"
   width="245"
   height="140"
   id="svg4011">
  <metadata
     id="metadata4017">
    <rdf:RDF>
      <cc:Work
         rdf:about="">
        <dc:format>image/svg+xml</dc:format>
        <dc:type
           rdf:resource="http://purl.org/dc/dcmitype/StillImage" />
        <dc:title></dc:title>
      </cc:Work>
    </rdf:RDF>
  </metadata>
  <defs
     id="defs4015" />
  <path
     d="m 7.0747702,52.472166 25.8854258,0 0,6.613015 -17.160254,-0.05373 0.02151,6.533143 15.978252,0.01132 0.01132,6.919988 -15.967509,-1.2e-5 -0.04303,8.091217 18.610885,0.02145 1.1e-5,6.674085 -27.3360555,-0.0113 z"
     id="path3083"
     style="fill:#000;fill-opacity:1;stroke-width:0;stroke-linecap:butt;stroke-linejoin:miter;stroke-miterlimit:4;stroke-opacity:1;stroke-dasharray:none" />
  <path
     d="m 38.841045,52.472166 10.561329,0 6.42797,10.466901 6.268188,-10.466901 10.462772,0.01521 -11.594667,16.123102 13.434158,18.660874 -10.768539,0 -7.801912,-12.77995 -8.340086,12.77995 -10.514644,0 13.429706,-18.660874 z"
     id="path3865"
     style="fill:#000;fill-opacity:1;stroke-width:0;stroke-linecap:butt;stroke-linejoin:miter;stroke-miterlimit:4;stroke-opacity:1;stroke-dasharray:none" />
  <path
     d="m 144.38895,52.472166 25.70275,0 0,6.613015 -16.9131,0 0,6.47941 15.75263,0 0,6.919977 -15.75263,0 0,8.101949 18.46043,0 0,6.684825 -27.25008,0 z"
     id="path3907"
     style="fill:#000;fill-opacity:1;stroke-width:0;stroke-linecap:butt;stroke-linejoin:miter;stroke-miterlimit:4;stroke-opacity:1;stroke-dasharray:none" />
  <path
     d="m 77.167258,52.475008 0,34.794624 8.828961,0 0,-11.211722 5.546587,-0.0013 c 7.125486,-0.0013 14.895634,-2.358945 14.895634,-12.460927 0,-10.040564 -7.770148,-11.124844 -14.790774,-11.12346 z"
     id="path3917"
     style="fill:#000;fill-opacity:1;stroke:#0000ff;stroke-width:0.34039372;stroke-opacity:0" />
  <path
     d="m 109.85357,52.472166 0,34.799176 8.6822,0 0,-12.369656 5.72284,-0.06076 6.6863,12.430453 9.8471,0 -7.8412,-13.889287 c 1.40818,0 5.99725,-2.390896 5.99725,-10.086805 0,-11.116928 -9.04468,-10.823093 -12.44043,-10.823093 z"
     id="path3919"
     style="fill:#000;fill-opacity:1;stroke:none" />
  <path
     d="m 117.79065,59.085181 7.24246,0 c 2.43607,0.13876 5.40983,0 5.40983,4.753697 0,3.840802 -2.35894,4.771599 -5.40983,4.771599 l -7.24246,0 z"
     id="path3929"
     style="fill:#fff;fill-opacity:1;stroke:none" />
  <path
     d="m 85.249573,69.628621 0,-10.54344 7.582876,0 c 5.09072,0 5.09072,3.748701 5.09072,4.495371 0,5.483184 -3.365026,6.048069 -5.09072,6.048069 z"
     id="path3937"
     style="fill:#fff;fill-opacity:1;stroke:none" />
  <path
     d="m 204.61583,58.489839 -6.38239,4.984333 c 0,0 -3.23104,-4.043107 -8.44905,-4.634824 -2.38538,-0.270504 -6.35741,1.188216 -6.24562,3.586301 0.1483,3.181313 5.8143,3.67191 8.69219,3.966191 8.10285,0.828543 12.65925,4.543075 12.29369,10.971614 -0.44432,7.813658 -6.93991,10.552118 -12.49123,11.169158 -6.97878,0.77573 -13.54534,-1.01211 -19.32951,-6.838253 l 6.80788,-4.361287 c 1.4394,1.545311 4.83079,4.007176 7.78045,4.315699 2.95127,0.308704 7.33167,-0.102531 8.50982,-2.613739 2.11799,-4.514481 -4.1168,-4.553783 -10.30298,-5.500996 -8.11682,-1.242842 -10.43593,-5.278413 -10.51574,-9.482412 -0.15791,-8.317919 5.58248,-12.068798 14.1932,-12.217699 5.33211,-0.09221 11.60887,2.641401 15.43929,6.655914 z"
     id="path3951"
     style="fill:#000;fill-opacity:1;stroke:#0000ff;stroke-width:0.34039372px;stroke-linecap:butt;stroke-linejoin:miter;stroke-opacity:0" />
  <path
     d="m 238.42423,58.495588 -6.38237,4.984334 c 0,0 -3.23108,-4.043108 -8.44907,-4.634825 -2.38539,-0.270503 -6.3574,1.188217 -6.24562,3.586288 0.1483,3.181314 5.81429,3.671923 8.6922,3.966191 8.10282,0.828557 12.65924,4.543077 12.29368,10.971624 -0.44432,7.813642 -6.93991,10.552122 -12.49123,11.169162 -6.97879,0.77571 -13.54535,-1.01212 -19.32952,-6.838266 l 6.80791,-4.361288 c 1.43938,1.545311 4.83076,4.007176 7.78041,4.315699 2.95129,0.308705 7.33169,-0.102531 8.50984,-2.613728 2.118,-4.514478 -4.11681,-4.553792 -10.30299,-5.501007 -8.11679,-1.242841 -10.43592,-5.278412 -10.51574,-9.482398 -0.1579,-8.317932 5.58122,-12.230405 14.19321,-12.217699 5.76624,0.0088 11.60888,2.641401 15.43929,6.655913 z"
     id="path3953"
     style="fill:#000;fill-opacity:1;stroke:#0000ff;stroke-width:0.34039372px;stroke-linecap:butt;stroke-linejoin:miter;stroke-opacity:0" />
</svg>
